<?xml version="1.0" encoding="UTF-8" standalone="no"?>
<svg
   xmlns:dc="http://purl.org/dc/elements/1.1/"
   xmlns:cc="http://creativecommons.org/ns#"
   xmlns:rdf="http://www.w3.org/1999/02/22-rdf-syntax-ns#"
   xmlns:svg="http://www.w3.org/2000/svg"
   xmlns="http://www.w3.org/2000/svg"
   xmlns:sodipodi="http://sodipodi.sourceforge.net/DTD/sodipodi-0.dtd"
   xmlns:inkscape="http://www.inkscape.org/namespaces/inkscape"
   inkscape:version="1.0 (4035a4fb49, 2020-05-01)"
   sodipodi:docname="logo-footer.svg"
   id="svg38"
   version="1.1"
   height="24"
   width="146">
  <metadata
     id="metadata44">
    <rdf:RDF>
      <cc:Work
         rdf:about="">
        <dc:format>image/svg+xml</dc:format>
        <dc:type
           rdf:resource="http://purl.org/dc/dcmitype/StillImage" />
        <dc:title></dc:title>
      </cc:Work>
    </rdf:RDF>
  </metadata>
  <defs
     id="defs42" />
  <sodipodi:namedview
     inkscape:current-layer="g36"
     inkscape:window-maximized="1"
     inkscape:window-y="-6"
     inkscape:window-x="-8"
     inkscape:cy="11.472261"
     inkscape:cx="68.514324"
     inkscape:zoom="10.277264"
     showgrid="false"
     id="namedview40"
     inkscape:window-height="1057"
     inkscape:window-width="1920"
     inkscape:pageshadow="2"
     inkscape:pageopacity="0"
     guidetolerance="10"
     gridtolerance="10"
     objecttolerance="10"
     borderopacity="1"
     bordercolor="#666666"
     pagecolor="#ffffff" />
  <g
     id="g36"
     fill-rule="evenodd"
     fill="none">
    <path
       style="fill:#ffffff"
       id="path28"
       d="M40.014 16.809V8.553c0-1.577.366-2.82 1.098-3.73.733-.91 1.65-1.365 2.75-1.365 2.158 0 3.237 1.577 3.237 4.731v8.62h3.782v-9.58c0-2.415-.5-4.22-1.503-5.417C48.376.615 46.945.017 45.084.017c-1.222 0-2.34.234-3.352.703a6.833 6.833 0 00-2.56 2.043h-.066C38.126.932 36.486.017 34.184.017c-.969 0-1.902.217-2.799.653a6.976 6.976 0 00-2.353 1.878h-.05V.265H25.2v16.527h3.782V8.553c0-1.577.372-2.82 1.115-3.73.743-.91 1.693-1.365 2.849-1.365 2.19 0 3.286 1.577 3.286 4.731v8.62h3.782zm21.101.248c2.246 0 3.997-.827 5.252-2.482h.05v2.217h3.616V.265h-3.782V2.25h-.066C64.93.761 63.23.017 61.082.017a7.76 7.76 0 00-5.681 2.415c-.705.75-1.26 1.66-1.668 2.73a9.589 9.589 0 00-.611 3.44c0 1.258.203 2.416.61 3.475.408 1.059.964 1.952 1.669 2.68a7.348 7.348 0 002.535 1.696 8.325 8.325 0 003.18.604zm.595-3.441c-1.399 0-2.538-.466-3.419-1.398-.88-.932-1.321-2.132-1.321-3.599 0-1.555.454-2.804 1.362-3.747.909-.943 2.04-1.414 3.394-1.414 1.343 0 2.458.493 3.345 1.48.886.988 1.33 2.215 1.33 3.681 0 1.467-.455 2.667-1.363 3.599-.909.932-2.018 1.398-3.328 1.398zm27.112 3.193V7.064c0-2.393-.536-4.166-1.61-5.319C86.14.593 84.655.017 82.762.017a7.373 7.373 0 00-3.056.645 6.958 6.958 0 00-2.477 1.87h-.05V.264h-3.782v16.527h3.782V8.487c0-1.588.388-2.823 1.164-3.706.777-.882 1.814-1.323 3.113-1.323.595 0 1.104.077 1.528.231.424.155.796.406 1.115.753.32.348.556.819.71 1.415.154.595.231 1.323.231 2.183v8.769h3.782zm10.218.248c2.246 0 3.996-.827 5.252-2.482h.05v2.217h3.616V.265h-3.782V2.25h-.066C102.855.761 101.154.017 99.007.017a7.76 7.76 0 00-5.682 2.415c-.704.75-1.26 1.66-1.668 2.73a9.589 9.589 0 00-.61 3.44c0 1.258.203 2.416.61 3.475.408 1.059.964 1.952 1.668 2.68a7.348 7.348 0 002.536 1.696 8.325 8.325 0 003.179.604zm.594-3.441c-1.398 0-2.538-.466-3.418-1.398-.881-.932-1.322-2.132-1.322-3.599 0-1.555.455-2.804 1.363-3.747.908-.943 2.04-1.414 3.394-1.414 1.343 0 2.458.493 3.344 1.48.886.988 1.33 2.215 1.33 3.681 0 1.467-.455 2.667-1.363 3.599-.908.932-2.018 1.398-3.328 1.398zm19.07 10.125c1.2 0 2.274-.14 3.22-.422.947-.281 1.743-.673 2.387-1.175a6.385 6.385 0 001.602-1.844 8.14 8.14 0 00.916-2.383c.188-.86.281-1.803.281-2.829V.265h-3.782v1.737h-.066a7.059 7.059 0 00-2.353-1.49A7.62 7.62 0 00118.142 0c-1.508 0-2.862.358-4.062 1.075-1.2.717-2.134 1.713-2.8 2.987-.666 1.273-.999 2.705-.999 4.293 0 1.61.35 3.038 1.049 4.285.699 1.246 1.66 2.203 2.882 2.87 1.222.667 2.598 1.001 4.129 1.001 2.047 0 3.716-.673 5.004-2.018h.066v1.753c0 1.17-.43 2.14-1.288 2.912-.86.772-2.07 1.158-3.634 1.158-1.068 0-2.006-.132-2.816-.397-.809-.265-1.742-.678-2.799-1.24l-.892 3.341c.925.552 1.966.976 3.122 1.274 1.156.298 2.356.447 3.6.447zm.132-10.72c-1.365 0-2.491-.434-3.377-1.3-.887-.865-1.33-2.026-1.33-3.482 0-1.4.435-2.542 1.305-3.425.87-.882 2.004-1.323 3.402-1.323 1.332 0 2.442.435 3.328 1.307.886.871 1.33 2.002 1.33 3.391 0 1.401-.433 2.556-1.297 3.466-.864.91-1.985 1.365-3.361 1.365zm19.086 4.036c1.542 0 2.899-.281 4.071-.844 1.173-.562 2.133-1.323 2.882-2.283l-2.642-2.266c-1.035 1.301-2.406 1.952-4.113 1.952-1.21 0-2.237-.337-3.08-1.01-.842-.672-1.384-1.593-1.627-2.762h12.024c.066-.397.099-.9.099-1.506 0-1.599-.325-3.027-.975-4.285a7.198 7.198 0 00-2.807-2.961c-1.222-.717-2.632-1.075-4.228-1.075a8.191 8.191 0 00-3.188.62c-.99.414-1.844.99-2.56 1.729-.715.739-1.277 1.638-1.684 2.696-.407 1.06-.611 2.212-.611 3.458 0 1.688.369 3.185 1.106 4.492.738 1.307 1.746 2.308 3.023 3.003 1.277.695 2.714 1.042 4.31 1.042zm3.815-10.274h-8.257c.264-1.059.776-1.878 1.535-2.457.76-.579 1.663-.868 2.709-.868 1.057 0 1.93.298 2.618.893.688.596 1.153 1.406 1.395 2.432z"
       fill-rule="nonzero"
       fill="#242D52" />
    <g
       id="g34"
       fill="#F3603C">
      <path
         id="path30"
         d="M2.786 10.286c1.538 0 2.785 1.279 2.785 2.857C5.571 14.72 4.324 16 2.786 16 1.247 16 0 14.72 0 13.143c0-1.578 1.247-2.857 2.786-2.857zM2.786 0C4.324 0 5.57 1.28 5.57 2.857c0 1.578-1.247 2.857-2.785 2.857C1.247 5.714 0 4.435 0 2.857 0 1.28 1.247 0 2.786 0zm10.028 0C14.353 0 15.6 1.28 15.6 2.857c0 1.578-1.247 2.857-2.786 2.857-1.538 0-2.785-1.279-2.785-2.857C10.029 1.28 11.276 0 12.814 0z" />
      <ellipse
         id="ellipse32"
         ry="2.857"
         rx="2.786"
         opacity=".5"
         cy="13.257"
         cx="12.814" />
    </g>
  </g>
  <path
     id="path46"
     d="M 25.250707,8.4910462 V 0.30348728 h 1.857681 1.857682 v 1.18961202 1.189612 l 0.722431,-0.6787708 c 1.204683,-1.13187702 2.184562,-1.61359361 3.749765,-1.8434151 2.169302,-0.31852254 4.097239,0.49540132 5.388276,2.2747871 l 0.296854,0.4091412 0.735192,-0.6946024 c 1.283674,-1.2128037 2.391621,-1.7329245 4.20763,-1.97525298 2.668298,-0.3560583 4.954833,0.71821478 5.925942,2.78416098 0.719773,1.5312513 0.752485,1.8507269 0.816532,7.9747937 l 0.06008,5.745052 H 49.006931 47.145088 L 47.10212,11.415174 C 47.060355,6.2990371 47.050327,6.1298337 46.743813,5.36881 46.419438,4.563441 45.750751,3.8435714 45.08509,3.5831233 44.52413,3.3636404 43.135838,3.4077415 42.520264,3.6645987 41.731338,3.9937895 40.882385,4.8866108 40.432377,5.8603725 l -0.389022,0.8417953 -0.04225,4.9882182 -0.04225,4.988219 h -1.84232 -1.842319 l -0.04297,-5.263431 C 36.18974,6.3311665 36.177744,6.1256362 35.879321,5.3858739 35.340783,4.0508898 34.432664,3.4441425 32.973129,3.4441425 c -1.240226,0 -1.931321,0.3040095 -2.765187,1.2163922 -1.177318,1.288173 -1.241872,1.6668677 -1.241872,7.2851573 v 4.732913 h -1.857682 -1.857681 z"
     style="fill:none;stroke-width:0.137606" />
  <path
     id="path48"
     d="M 25.113101,8.4910462 V 0.16588124 h 1.926484 1.926485 V 1.3309457 2.49601 l 0.447219,-0.4469518 c 2.014078,-2.01287262 5.110281,-2.63623857 7.492245,-1.50843177 0.670478,0.31745631 1.719479,1.27697717 2.074213,1.89728357 0.148597,0.2598435 0.185126,0.2444608 0.722365,-0.3042033 0.719422,-0.7347195 1.616283,-1.32882351 2.597256,-1.72048764 0.668616,-0.26695294 1.027837,-0.30825764 2.697804,-0.31020557 1.853453,-0.002162 1.957155,0.0129582 2.735489,0.39884822 1.472728,0.73016289 2.42025,2.01139029 2.924073,3.95389379 0.185857,0.7165819 0.236902,1.8853631 0.288917,6.6154035 l 0.06318,5.745052 H 49.000644 46.99246 v -4.947044 c 0,-5.2171914 -0.06982,-6.0012679 -0.619439,-6.9558777 -1.016574,-1.7656546 -3.5809,-1.8959752 -5.021524,-0.2551965 -0.250072,0.2848178 -0.615745,0.8612509 -0.812607,1.2809627 l -0.357929,0.7631123 -0.04074,5.0570212 -0.04074,5.057022 h -1.988953 -1.988954 v -5.076928 c 0,-4.691817 -0.02092,-5.1446638 -0.275804,-5.9698806 C 35.463271,4.5309876 34.771145,3.825603 33.725526,3.6085332 31.771888,3.2029595 30.075403,4.2860296 29.310842,6.4269557 29.098167,7.0224905 29.056405,7.7670783 29.000191,11.965598 l -0.06494,4.850613 h -1.911074 -1.911073 z"
     style="fill:none;stroke-width:0.137606" />
</svg>
